<svg width="26" height="26" viewBox="0 0 26 26" fill="none" xmlns="http://www.w3.org/2000/svg">
<path d="M0.877519 6.28875L0.812519 4.875C0.812519 4.01305 1.15493 3.1864 1.76442 2.5769C2.37392 1.96741 3.20057 1.625 4.06252 1.625H10.0295C10.8914 1.62518 11.7179 1.96771 12.3273 2.57725L13.6728 3.92275C14.2821 4.53229 15.1086 4.87482 15.9705 4.875H22.4413C22.8929 4.87495 23.3396 4.96903 23.7528 5.15124C24.166 5.33344 24.5368 5.59977 24.8413 5.93323C25.1459 6.2667 25.3776 6.65998 25.5217 7.088C25.6658 7.51601 25.7191 7.96936 25.6783 8.41913L24.6431 19.7941C24.5698 20.6016 24.1972 21.3525 23.5986 21.8994C23 22.4463 22.2186 22.7497 21.4078 22.75H4.59227C3.78146 22.7497 3.00004 22.4463 2.40144 21.8994C1.80283 21.3525 1.43027 20.6016 1.35689 19.7941L0.321769 8.41913C0.252522 7.6664 0.449159 6.91319 0.877519 6.29038V6.28875ZM3.55877 6.5C3.33303 6.49999 3.10977 6.54701 2.90321 6.63806C2.69666 6.72911 2.51134 6.8622 2.35906 7.02884C2.20679 7.19549 2.09091 7.39203 2.01881 7.60594C1.9467 7.81984 1.91995 8.04643 1.94027 8.27125L2.97539 19.6462C3.01188 20.05 3.19796 20.4255 3.49711 20.6991C3.79626 20.9727 4.18687 21.1246 4.59227 21.125H21.4078C21.8132 21.1246 22.2038 20.9727 22.5029 20.6991C22.8021 20.4255 22.9882 20.05 23.0246 19.6462L24.0598 8.27125C24.0801 8.04643 24.0533 7.81984 23.9812 7.60594C23.9091 7.39203 23.7932 7.19549 23.641 7.02884C23.4887 6.8622 23.3034 6.72911 23.0968 6.63806C22.8903 6.54701 22.667 6.49999 22.4413 6.5H3.55877ZM11.18 3.72613C11.029 3.57503 10.8496 3.4552 10.6522 3.3735C10.4548 3.2918 10.2432 3.24983 10.0295 3.25H4.06252C3.63684 3.24992 3.22812 3.41688 2.92425 3.71498C2.62038 4.01308 2.44561 4.41852 2.43752 4.84412L2.44727 5.07C2.79502 4.94325 3.16877 4.875 3.55877 4.875H12.3273L11.1784 3.72613H11.18Z" fill="black"/>
</svg>
